{"glyphs":{":":{"x_min":0,"x_max":212,"ha":212,"o":"m 106 112 q 131 112 148 94 q 166 77 166 52 q 166 27 148 10 q 130 -8 106 -8 q 82 -8 64 10 q 46 28 46 52 q 46 76 64 94 q 82 112 106 112 z m 106 387 q 131 387 149 370 q 166 352 166 327 q 166 303 148 285 q 130 267 106 267 q 82 267 64 285 q 46 303 46 327 q 46 351 64 369 q 82 387 106 387 z"},"$":{"x_min":0,"x_max":389,"ha":389,"o":"m 209 270 l 209 79 q 239 82 257 104 q 275 125 275 159 q 275 195 259 223 q 243 250 209 270 z m 172 417 l 172 588 q 146 588 130 568 q 113 547 113 516 q 113 485 128 460 q 143 435 172 417 z m 338 663 l 338 482 l 269 482 q 268 525 253 551 q 238 577 209 585 l 209 393 q 292 342 329 290 q 365 238 365 169 q 365 93 324 45 q 283 -2 218 -2 l 209 -2 l 209 -99 l 172 -99 l 172 0 q 148 4 128 18 q 107 31 96 50 l 96 3 l 25 3 l 25 199 l 100 199 q 102 146 120 117 q 138 87 172 82 l 172 297 q 99 340 64 392 q 29 443 29 507 q 29 579 68 622 q 106 665 172 666 l 172 732 l 209 732 l 209 663 q 232 656 248 646 q 264 635 274 621 l 274 663 z"},"?":{"x_min":0,"x_max":396,"ha":396,"o":"m 170 106 q 195 106 213 88 q 230 71 230 45 q 230 21 212 3 q 194 -14 169 -14 q 146 -14 128 4 q 110 22 110 46 q 110 70 128 88 q 146 106 170 106 z m 213 336 l 213 206 l 125 206 l 125 405 l 141 405 q 204 405 232 430 q 260 456 260 513 q 260 560 241 584 q 223 608 188 608 q 158 608 140 587 q 122 566 122 531 l 33 531 l 33 552 q 33 619 75 657 q 116 695 189 695 q 268 695 310 648 q 351 602 351 513 q 351 432 315 386 q 280 341 213 336 z"},"<":{"x_min":0,"x_max":833,"ha":833,"o":"m 704 574 l 704 484 l 248 298 l 704 112 l 704 23 l 129 259 l 129 337 z"},"'":{"x_min":0,"x_max":163,"ha":163,"o":"m 42 701 l 122 701 l 122 429 l 42 429 z"},"=":{"x_min":0,"x_max":833,"ha":833,"o":"m 124 238 l 709 238 l 709 157 l 124 157 z m 124 440 l 709 440 l 709 358 l 124 358 z"},"a":{"x_min":0,"x_max":404,"ha":404,"o":"m 136 154 q 136 114 147 95 q 159 77 183 77 q 209 77 225 100 q 241 123 241 163 l 241 281 q 241 321 227 341 q 213 361 186 361 q 160 361 148 342 q 136 323 136 282 z m 249 50 q 226 21 201 6 q 177 -8 148 -8 q 94 -8 65 36 q 36 81 36 164 l 36 294 q 36 365 67 405 q 98 445 153 445 q 188 445 212 431 q 236 417 255 385 l 255 437 l 379 437 l 379 357 l 341 357 l 341 80 l 379 80 l 379 0 l 249 0 z"},"L":{"x_min":0,"x_max":480,"ha":480,"o":"m 25 0 l 25 88 l 81 88 l 81 593 l 25 593 l 25 681 l 256 681 l 256 593 l 199 593 l 199 87 l 362 87 l 362 213 l 460 213 l 460 0 z"},"3":{"x_min":0,"x_max":389,"ha":389,"o":"m 249 351 q 297 345 323 301 q 349 256 349 180 q 349 83 309 34 q 268 -14 187 -14 q 109 -14 70 32 q 31 78 31 169 l 31 200 l 122 200 l 122 175 q 122 123 138 97 q 154 72 186 72 q 221 72 234 95 q 248 118 248 184 q 248 260 229 283 q 211 306 159 306 l 152 306 l 152 386 l 156 386 q 208 386 228 408 q 247 431 247 498 q 247 551 233 574 q 220 597 189 597 q 158 597 143 573 q 128 548 128 496 l 128 476 l 38 476 l 38 502 q 38 592 76 636 q 113 681 189 681 q 264 681 303 635 q 343 590 343 503 q 343 429 320 391 q 296 354 249 351 z"},";":{"x_min":0,"x_max":212,"ha":212,"o":"m 69 112 l 154 112 l 91 -96 l 6 -96 z m 111 387 q 136 387 154 370 q 171 352 171 327 q 171 303 153 285 q 135 267 111 267 q 87 267 69 285 q 51 303 51 327 q 51 351 69 369 q 86 387 111 387 z"},"J":{"x_min":0,"x_max":281,"ha":281,"o":"m 13 -121 l 13 -20 l 27 -20 q 62 -20 75 -6 q 88 8 88 48 l 88 593 l 32 593 l 32 681 l 262 681 l 262 593 l 206 593 l 206 53 q 206 -36 164 -78 q 123 -121 35 -121 z"},"V":{"x_min":0,"x_max":484,"ha":484,"o":"m 204 -7 l 50 593 l 11 593 l 11 681 l 212 681 l 212 593 l 166 593 l 248 192 l 333 593 l 284 593 l 284 681 l 476 681 l 476 593 l 434 593 l 287 -7 z"},"\"":{"x_min":0,"x_max":314,"ha":314,"o":"m 193 701 l 273 701 l 273 429 l 193 429 z m 42 701 l 122 701 l 122 429 l 42 429 z"},"7":{"x_min":0,"x_max":389,"ha":389,"o":"m 35 473 l 35 667 l 354 667 l 354 567 l 182 0 l 79 0 l 253 576 l 122 576 l 122 473 z"},"S":{"x_min":0,"x_max":426,"ha":426,"o":"m 37 0 l 37 213 l 125 213 q 130 150 157 116 q 184 81 226 81 q 258 81 278 101 q 297 120 297 153 q 297 178 284 200 q 271 223 242 249 l 124 354 q 82 391 60 436 q 39 480 39 532 q 39 602 82 648 q 124 694 189 694 q 221 694 250 680 q 279 666 304 639 l 304 681 l 387 681 l 387 496 l 303 496 q 296 545 271 573 q 247 601 212 601 q 185 601 165 582 q 146 562 146 534 q 146 513 158 492 q 170 471 194 450 l 320 337 q 368 295 388 253 q 409 210 409 157 q 409 82 363 34 q 316 -13 243 -13 q 206 -13 175 3 q 144 19 117 53 l 117 0 z"},"}":{"x_min":0,"x_max":500,"ha":500,"o":"m 74 721 l 96 721 q 152 721 184 716 q 215 710 237 697 q 265 681 276 650 q 287 620 287 550 l 287 429 q 287 359 312 330 q 338 302 400 302 q 403 302 410 302 q 417 303 421 303 l 421 216 q 417 216 410 216 q 403 217 400 217 q 338 217 313 188 q 287 159 287 89 l 287 -32 q 287 -102 276 -132 q 265 -162 237 -178 q 216 -191 184 -197 q 152 -202 96 -202 l 74 -202 l 74 -116 q 78 -116 85 -117 q 93 -117 96 -117 q 149 -117 168 -97 q 187 -76 187 -11 l 187 106 q 187 181 209 213 q 231 245 287 259 q 231 272 209 304 q 187 336 187 412 l 187 530 q 187 594 168 615 q 150 635 97 635 q 94 635 86 634 q 78 634 74 634 z"},"Z":{"x_min":0,"x_max":440,"ha":440,"o":"m 24 0 l 24 94 l 296 594 l 125 594 l 125 487 l 29 487 l 29 681 l 413 681 l 413 592 l 138 87 l 314 87 l 314 218 l 411 218 l 411 0 z"},"x":{"x_min":0,"x_max":357,"ha":357,"o":"m 8 437 l 136 437 l 136 376 l 185 299 l 236 376 l 236 437 l 345 437 l 345 357 l 316 357 l 231 231 l 326 80 l 352 80 l 352 0 l 225 0 l 225 66 l 171 150 l 115 66 l 115 0 l 5 0 l 5 80 l 31 80 l 126 218 l 38 357 l 8 357 z"},")":{"x_min":0,"x_max":262,"ha":262,"o":"m 90 694 q 152 597 184 499 q 215 400 215 300 q 215 200 184 101 q 152 1 90 -95 l 12 -95 q 63 5 89 104 q 115 203 115 300 q 115 396 89 495 q 63 593 12 694 z"},"&":{"x_min":0,"x_max":594,"ha":594,"o":"m 196 320 q 166 294 150 265 q 135 235 135 203 q 135 154 169 119 q 204 84 252 84 q 278 84 301 95 q 325 106 346 128 z m 274 385 l 409 211 q 422 239 431 267 q 439 294 442 321 l 394 321 l 394 405 l 572 405 l 572 321 l 530 321 q 522 268 508 223 q 493 179 469 139 l 507 91 l 572 91 l 572 0 l 447 0 l 399 59 q 364 22 323 4 q 282 -14 233 -14 q 143 -14 87 42 q 31 98 31 187 q 31 244 59 294 q 87 345 145 391 q 113 433 98 470 q 83 508 83 544 q 83 611 124 652 q 165 694 231 694 q 299 694 339 657 q 379 621 379 558 q 379 510 353 467 q 327 425 274 385 z m 219 449 q 253 478 270 504 q 286 531 286 557 q 286 581 271 596 q 256 611 231 611 q 205 611 189 594 q 173 577 173 549 q 173 527 184 503 q 195 479 219 449 z"},"_":{"x_min":0,"x_max":500,"ha":500,"o":"m 0 -152 l 500 -152 l 500 -236 l 0 -236 z"},"v":{"x_min":0,"x_max":403,"ha":403,"o":"m 162 -6 l 39 357 l 5 357 l 5 437 l 173 437 l 173 357 l 137 357 l 202 134 l 274 357 l 234 357 l 234 437 l 398 437 l 398 357 l 362 357 l 232 -6 z"},"O":{"x_min":0,"x_max":450,"ha":450,"o":"m 419 490 l 419 190 q 419 89 370 38 q 320 -14 225 -14 q 130 -14 80 38 q 31 89 31 190 l 31 490 q 31 590 80 642 q 130 694 225 694 q 320 694 370 642 q 419 590 419 490 z m 300 497 q 300 550 282 574 q 264 598 225 598 q 186 598 168 574 q 150 550 150 497 l 150 184 q 150 131 168 107 q 186 83 225 83 q 264 83 282 107 q 300 131 300 184 z"},"(":{"x_min":0,"x_max":262,"ha":262,"o":"m 171 -95 q 109 1 78 100 q 47 199 47 300 q 47 400 78 499 q 109 598 171 694 l 250 694 q 198 594 173 495 q 147 397 147 300 q 147 203 173 104 q 199 5 250 -95 z"},"C":{"x_min":0,"x_max":432,"ha":432,"o":"m 410 225 l 410 197 q 410 94 362 40 q 313 -14 221 -14 q 127 -14 79 42 q 31 98 31 206 l 31 456 q 31 574 73 634 q 115 694 199 694 q 235 694 264 681 q 293 669 313 644 l 313 681 l 399 681 l 399 476 l 306 476 l 305 494 q 302 546 283 572 q 265 598 230 598 q 189 598 169 572 q 150 546 150 490 l 150 190 q 150 134 169 109 q 188 83 230 83 q 270 83 290 110 q 310 137 310 191 l 310 225 z"},"W":{"x_min":0,"x_max":684,"ha":684,"o":"m 179 -7 l 45 593 l 4 593 l 4 681 l 202 681 l 202 593 l 153 593 l 228 209 l 309 593 l 258 593 l 258 681 l 434 681 l 434 593 l 385 593 l 464 209 l 544 593 l 494 593 l 494 681 l 680 681 l 680 593 l 641 593 l 503 -7 l 432 -7 l 341 414 l 246 -7 z"},"A":{"x_min":0,"x_max":537,"ha":537,"o":"m 201 278 l 328 278 l 266 555 z m 10 0 l 10 88 l 53 88 l 187 593 l 128 593 l 128 681 l 414 681 l 414 593 l 355 593 l 487 88 l 527 88 l 527 0 l 312 0 l 312 88 l 372 88 l 345 202 l 183 202 l 155 88 l 213 88 l 213 0 z"},"f":{"x_min":0,"x_max":234,"ha":234,"o":"m 29 0 l 29 80 l 67 80 l 67 360 l 29 360 l 29 437 l 67 437 l 67 563 q 67 624 92 653 q 118 681 172 681 l 216 681 l 216 604 q 188 604 177 593 q 167 581 167 547 l 167 437 l 209 437 l 209 360 l 167 360 l 167 80 l 205 80 l 205 0 z"},"Q":{"x_min":0,"x_max":450,"ha":450,"o":"m 31 190 l 31 490 q 31 590 80 642 q 130 694 225 694 q 320 694 370 642 q 419 590 419 490 l 419 190 q 419 114 391 66 q 362 18 306 -1 l 417 -118 l 294 -118 l 199 -13 q 115 -4 73 47 q 31 98 31 190 z m 150 184 q 150 132 168 107 q 186 83 225 83 q 264 83 282 107 q 300 132 300 184 l 300 497 q 300 549 282 574 q 264 598 225 598 q 186 598 168 574 q 150 549 150 497 z"},"w":{"x_min":0,"x_max":571,"ha":571,"o":"m 147 -6 l 36 357 l 5 357 l 5 437 l 167 437 l 167 357 l 133 357 l 191 131 l 254 357 l 221 357 l 221 437 l 361 437 l 361 357 l 325 357 l 387 131 l 448 357 l 413 357 l 413 437 l 566 437 l 566 357 l 535 357 l 424 -6 l 353 -6 l 284 246 l 214 -6 z"},"-":{"x_min":0,"x_max":303,"ha":303,"o":"m 28 188 l 28 271 l 274 271 l 274 188 z"},"E":{"x_min":0,"x_max":500,"ha":500,"o":"m 25 0 l 25 88 l 81 88 l 81 593 l 25 593 l 25 681 l 463 681 l 463 489 l 366 489 l 366 594 l 199 594 l 199 409 l 339 409 l 339 311 l 199 311 l 199 87 l 366 87 l 366 209 l 463 209 l 463 0 z"},"s":{"x_min":0,"x_max":322,"ha":322,"o":"m 28 0 l 28 152 l 101 152 q 107 113 124 92 q 142 71 168 71 q 187 71 198 81 q 209 91 209 109 q 209 122 201 134 q 193 145 173 161 l 85 229 q 60 249 46 276 q 32 304 32 334 q 32 383 62 414 q 91 446 136 446 q 158 446 179 436 q 200 426 220 406 l 220 437 l 286 437 l 286 307 l 217 307 q 208 340 194 355 q 179 370 157 370 q 142 370 132 361 q 122 351 122 336 q 122 326 129 316 q 135 307 154 293 l 232 232 q 267 205 283 176 q 299 146 299 110 q 299 58 269 25 q 238 -8 191 -8 q 165 -8 143 3 q 121 13 100 36 l 100 0 z"},">":{"x_min":0,"x_max":833,"ha":833,"o":"m 129 574 l 704 337 l 704 259 l 129 23 l 129 112 l 585 298 l 129 484 z"},"l":{"x_min":0,"x_max":216,"ha":216,"o":"m 20 0 l 20 80 l 58 80 l 58 600 l 20 600 l 20 681 l 158 681 l 158 80 l 196 80 l 196 0 z"},"8":{"x_min":0,"x_max":389,"ha":389,"o":"m 254 162 l 254 217 q 254 262 239 285 q 224 307 194 307 q 165 307 150 284 q 135 262 135 217 l 135 162 q 135 113 149 91 q 164 68 194 68 q 225 68 239 91 q 254 114 254 162 z m 250 471 l 250 521 q 250 560 236 580 q 222 599 194 599 q 167 599 153 580 q 139 560 139 521 l 139 471 q 139 430 153 411 q 166 391 194 391 q 222 391 236 411 q 250 431 250 471 z m 253 349 q 300 345 326 302 q 352 259 352 183 q 352 82 313 34 q 275 -14 194 -14 q 115 -14 75 33 q 36 80 36 174 q 36 256 62 300 q 87 344 136 349 q 87 355 64 391 q 41 427 41 497 q 41 591 78 636 q 116 681 194 681 q 272 681 310 636 q 348 591 348 497 q 348 427 325 391 q 302 355 253 349 z"},"\\":{"x_min":0,"x_max":291,"ha":291,"o":"m 258 -93 l -24 694 l 34 694 l 316 -93 z"},"e":{"x_min":0,"x_max":357,"ha":357,"o":"m 128 265 l 235 265 l 235 289 q 235 325 221 346 q 208 366 184 366 q 155 366 141 345 q 128 324 128 277 z m 328 137 q 323 67 285 30 q 246 -8 178 -8 q 104 -8 66 39 q 28 85 28 176 l 28 255 q 28 344 68 395 q 108 446 176 446 q 250 446 290 398 q 329 350 329 259 l 329 198 l 128 198 l 128 170 q 128 121 142 98 q 155 75 184 75 q 208 75 221 91 q 234 106 238 137 z"},"b":{"x_min":0,"x_max":398,"ha":398,"o":"m 158 159 q 158 116 171 97 q 185 77 213 77 q 238 77 251 95 q 263 112 263 149 l 263 289 q 263 324 251 342 q 240 359 216 359 q 188 359 173 340 q 158 321 158 286 z m 20 0 l 20 80 l 58 80 l 58 600 l 20 600 l 20 681 l 158 681 l 158 398 q 178 422 201 434 q 224 446 251 446 q 304 446 333 407 q 363 368 363 297 l 363 143 q 363 70 334 31 q 306 -8 253 -8 q 219 -8 193 6 q 167 20 146 50 l 146 0 z"},"%":{"x_min":0,"x_max":568,"ha":568,"o":"m 97 -14 l 418 681 l 470 681 l 149 -14 z m 414 106 q 414 83 421 72 q 427 60 441 60 q 454 60 460 72 q 467 83 467 106 l 467 242 q 467 265 460 276 q 454 287 441 287 q 427 287 420 276 q 414 266 414 242 z m 347 102 l 347 245 q 347 295 371 321 q 395 347 441 347 q 487 347 511 321 q 535 295 535 245 l 535 102 q 535 52 511 26 q 487 0 441 0 q 395 0 371 26 q 347 52 347 102 z m 100 425 q 100 402 107 391 q 113 380 127 380 q 141 380 147 391 q 153 402 153 425 l 153 562 q 153 585 146 596 q 140 607 127 607 q 113 607 107 596 q 100 584 100 562 z m 33 422 l 33 565 q 33 615 57 641 q 81 667 127 667 q 173 667 197 641 q 221 615 221 565 l 221 422 q 221 372 197 346 q 173 320 127 320 q 81 320 57 346 q 33 372 33 422 z"},"m":{"x_min":0,"x_max":632,"ha":632,"o":"m 358 387 q 382 416 409 430 q 437 445 468 445 q 520 445 544 414 q 568 384 568 317 l 568 80 l 606 80 l 606 0 l 432 0 l 432 80 l 470 80 l 470 292 q 470 328 461 343 q 451 358 429 358 q 406 358 389 344 q 371 330 366 308 l 366 80 l 405 80 l 405 0 l 231 0 l 231 80 l 269 80 l 269 292 q 269 328 260 343 q 250 358 228 358 q 205 358 188 344 q 170 330 165 308 l 165 80 l 203 80 l 203 0 l 29 0 l 29 80 l 67 80 l 67 357 l 29 357 l 29 437 l 155 437 l 155 380 q 181 413 209 429 q 238 445 272 445 q 304 445 326 430 q 348 416 358 387 z"},"#":{"x_min":0,"x_max":769,"ha":769,"o":"m 346 416 l 302 292 l 427 292 l 471 416 z m 359 713 l 452 713 l 377 500 l 499 500 l 575 713 l 668 713 l 593 500 l 735 500 l 706 416 l 563 416 l 519 293 l 670 293 l 640 209 l 490 209 l 414 -3 l 321 -3 l 397 209 l 274 209 l 197 -3 l 104 -3 l 180 209 l 34 209 l 64 293 l 209 293 l 253 416 l 99 416 l 129 500 l 283 500 z"},",":{"x_min":0,"x_max":194,"ha":194,"o":"m 67 112 l 152 112 l 89 -96 l 4 -96 z"},"n":{"x_min":0,"x_max":444,"ha":444,"o":"m 379 317 l 379 80 l 417 80 l 417 0 l 241 0 l 241 80 l 280 80 l 280 292 q 280 327 270 343 q 261 358 239 358 q 215 358 197 347 q 179 337 168 317 l 168 80 l 206 80 l 206 0 l 30 0 l 30 80 l 69 80 l 69 357 l 30 357 l 30 437 l 159 437 l 159 380 q 184 414 213 430 q 242 446 276 446 q 330 446 354 415 q 379 384 379 317 z"},"h":{"x_min":0,"x_max":433,"ha":433,"o":"m 20 681 l 158 681 l 158 390 q 181 417 208 431 q 235 445 266 445 q 320 445 344 415 q 369 384 369 317 l 369 80 l 407 80 l 407 0 l 232 0 l 232 80 l 269 80 l 269 292 q 269 327 259 343 q 248 358 225 358 q 201 358 183 344 q 164 331 158 308 l 158 80 l 196 80 l 196 0 l 20 0 l 20 80 l 58 80 l 58 600 l 20 600 z"},"z":{"x_min":0,"x_max":370,"ha":370,"o":"m 18 0 l 18 82 l 236 363 l 107 363 l 107 299 l 27 299 l 27 437 l 344 437 l 344 354 l 128 74 l 269 74 l 269 148 l 344 148 l 344 0 z"},"B":{"x_min":0,"x_max":493,"ha":493,"o":"m 195 85 l 254 85 q 301 85 322 107 q 342 129 342 181 l 342 237 q 342 282 321 302 q 301 322 254 322 l 195 322 z m 195 405 l 248 405 q 298 405 317 423 q 336 442 336 488 l 336 524 q 336 561 317 578 q 297 596 257 596 l 195 596 z m 25 0 l 25 88 l 81 88 l 81 593 l 25 593 l 25 681 l 268 681 q 358 681 402 643 q 446 605 446 528 l 446 504 q 446 443 417 408 q 389 374 331 364 q 396 354 426 320 q 456 285 456 219 l 456 175 q 456 84 414 42 q 372 0 282 0 z"},"K":{"x_min":0,"x_max":535,"ha":535,"o":"m 25 0 l 25 88 l 81 88 l 81 593 l 25 593 l 25 681 l 252 681 l 252 593 l 199 593 l 199 360 l 366 593 l 306 593 l 306 681 l 532 681 l 532 593 l 485 593 l 319 360 l 490 88 l 535 88 l 535 -1 l 307 -1 l 307 88 l 361 88 l 199 356 l 199 88 l 252 88 l 252 0 z"},"R":{"x_min":0,"x_max":525,"ha":525,"o":"m 199 399 l 266 399 q 310 399 329 416 q 349 432 349 469 l 349 528 q 349 565 330 580 q 311 594 258 594 l 199 594 z m 25 0 l 25 88 l 81 88 l 81 593 l 25 593 l 25 681 l 266 681 q 376 681 420 646 q 464 612 464 528 l 464 483 q 464 421 438 392 q 412 363 349 354 q 414 346 439 322 q 464 298 464 247 l 464 88 l 520 88 l 520 0 l 349 0 l 349 242 q 349 284 331 299 q 312 314 259 314 l 199 314 l 199 88 l 252 88 l 252 0 z"},"T":{"x_min":0,"x_max":485,"ha":485,"o":"m 116 0 l 116 88 l 183 88 l 183 596 l 106 596 l 106 482 l 25 482 l 25 681 l 460 681 l 460 482 l 378 482 l 378 596 l 301 596 l 301 88 l 369 88 l 369 0 z"},"P":{"x_min":0,"x_max":487,"ha":487,"o":"m 199 367 l 248 367 q 305 367 325 385 q 345 404 345 456 l 345 516 q 345 560 324 577 q 303 594 246 594 l 199 594 z m 25 0 l 25 88 l 81 88 l 81 593 l 25 593 l 25 681 l 265 681 q 365 681 412 642 q 458 602 458 517 l 458 447 q 458 361 418 320 q 379 280 295 280 l 199 280 l 199 88 l 256 88 l 256 0 z"},"|":{"x_min":0,"x_max":500,"ha":500,"o":"m 207 764 l 294 764 l 294 -236 l 207 -236 z"},"t":{"x_min":0,"x_max":225,"ha":225,"o":"m 201 -5 q 189 -6 177 -6 q 165 -7 146 -7 q 95 -7 77 14 q 58 34 58 96 l 58 360 l 20 360 l 20 437 l 58 437 l 58 595 l 158 595 l 158 437 l 200 437 l 200 360 l 158 360 l 158 119 q 158 91 164 85 q 169 79 191 79 l 201 79 z"},"M":{"x_min":0,"x_max":658,"ha":658,"o":"m 25 681 l 236 681 l 329 313 l 427 681 l 633 681 l 633 593 l 577 593 l 577 88 l 633 88 l 633 0 l 415 0 l 415 88 l 468 88 l 475 585 l 345 105 l 298 105 l 177 585 l 177 88 l 230 88 l 230 0 l 25 0 l 25 88 l 81 88 l 81 593 l 25 593 z"},"g":{"x_min":0,"x_max":398,"ha":398,"o":"m 134 157 q 134 117 146 98 q 158 79 183 79 q 211 79 226 101 q 240 123 240 166 l 240 278 q 240 319 225 340 q 210 361 181 361 q 158 361 146 343 q 134 326 134 291 z m 340 11 q 340 -96 299 -148 q 258 -199 174 -199 q 138 -199 107 -191 q 77 -183 53 -167 l 53 -78 q 77 -98 103 -107 q 128 -116 157 -116 q 202 -116 221 -91 q 240 -66 240 -6 l 240 44 q 220 17 198 4 q 176 -8 147 -8 q 92 -8 63 31 q 34 70 34 143 l 34 297 q 34 367 64 406 q 94 445 147 445 q 177 445 203 430 q 229 416 252 384 l 252 437 l 378 437 l 378 357 l 340 357 z"},"j":{"x_min":0,"x_max":209,"ha":209,"o":"m 20 437 l 158 437 l 158 -40 q 158 -127 125 -162 q 91 -197 9 -199 l 9 -112 q 38 -108 48 -95 q 58 -82 58 -32 l 58 357 l 20 357 z m 39 621 l 158 621 l 158 515 l 39 515 z"},"i":{"x_min":0,"x_max":225,"ha":225,"o":"m 48 515 l 48 621 l 167 621 l 167 515 z m 29 0 l 29 80 l 67 80 l 67 357 l 29 357 l 29 437 l 167 437 l 167 80 l 205 80 l 205 0 z"},"y":{"x_min":0,"x_max":403,"ha":403,"o":"m 58 -185 l 58 -105 l 102 -105 l 151 27 l 39 357 l 5 357 l 5 437 l 173 437 l 173 357 l 137 357 l 202 134 l 274 357 l 234 357 l 234 437 l 398 437 l 398 357 l 362 357 l 190 -105 l 237 -105 l 237 -185 z"},"@":{"x_min":0,"x_max":1000,"ha":1000,"o":"m 573 138 q 546 96 511 76 q 475 56 425 56 q 351 56 311 98 q 272 141 272 220 q 272 334 339 413 q 407 492 502 492 q 545 492 575 475 q 604 458 623 423 l 650 475 l 725 475 l 653 189 q 652 187 652 183 q 649 169 649 165 q 649 146 662 135 q 675 124 696 124 q 721 124 748 139 q 776 154 800 180 q 835 217 854 267 q 872 316 872 372 q 872 496 781 573 q 689 650 542 650 q 475 650 417 635 q 359 620 312 589 q 224 534 176 447 q 128 360 128 254 q 128 102 230 10 q 333 -81 503 -81 q 584 -81 661 -57 q 738 -33 803 12 l 836 -36 q 763 -91 680 -119 q 598 -147 507 -147 q 413 -147 335 -124 q 258 -100 198 -54 q 123 3 85 80 q 48 157 48 255 q 48 335 73 408 q 99 480 148 541 q 220 628 321 674 q 421 719 545 719 q 626 719 699 697 q 771 675 823 635 q 888 585 920 520 q 952 455 952 373 q 952 294 920 226 q 889 157 830 110 q 796 83 757 69 q 717 55 675 55 q 623 55 598 75 q 573 95 573 136 z m 602 345 q 595 386 572 409 q 549 431 512 431 q 450 431 406 368 q 362 306 362 217 q 362 169 384 143 q 406 117 447 117 q 491 117 527 150 q 562 182 575 234 z"},".":{"x_min":0,"x_max":194,"ha":194,"o":"m 37 52 q 37 76 55 94 q 73 112 97 112 q 122 112 139 94 q 157 77 157 52 q 157 27 139 10 q 121 -8 97 -8 q 73 -8 55 10 q 37 28 37 52 z"},"p":{"x_min":0,"x_max":387,"ha":387,"o":"m 261 294 q 261 327 249 342 q 237 358 213 358 q 187 358 173 339 q 159 319 159 284 l 159 162 q 159 119 173 98 q 188 76 216 76 q 240 76 250 91 q 261 106 261 141 z m 361 323 l 361 119 q 361 58 333 25 q 305 -8 254 -8 q 229 -8 204 4 q 179 17 159 40 l 159 -105 l 197 -105 l 197 -185 l 22 -185 l 22 -105 l 60 -105 l 60 358 l 22 358 l 22 437 l 149 437 l 149 384 q 172 415 198 430 q 225 446 256 446 q 307 446 334 414 q 361 382 361 323 z"},"X":{"x_min":0,"x_max":487,"ha":487,"o":"m 11 0 l 11 88 l 49 88 l 189 332 l 49 593 l 14 593 l 14 681 l 219 681 l 219 593 l 168 593 l 251 436 l 339 593 l 291 593 l 291 681 l 476 681 l 476 593 l 445 593 l 303 346 l 442 88 l 474 88 l 474 0 l 270 0 l 270 88 l 322 88 l 241 241 l 154 88 l 202 88 l 202 0 z"},"*":{"x_min":0,"x_max":324,"ha":324,"o":"m 107 437 l 59 473 l 119 548 l 27 575 l 45 631 l 135 598 l 131 694 l 192 694 l 189 598 l 279 631 l 297 574 l 204 547 l 263 472 l 215 437 l 161 516 z"},"Y":{"x_min":0,"x_max":500,"ha":500,"o":"m 12 681 l 219 681 l 219 593 l 170 593 l 250 372 l 341 593 l 292 593 l 292 681 l 488 681 l 488 593 l 448 593 l 302 268 l 302 88 l 358 88 l 358 0 l 128 0 l 128 88 l 184 88 l 184 272 l 53 593 l 12 593 z"},"c":{"x_min":0,"x_max":347,"ha":347,"o":"m 325 162 l 325 151 q 325 76 288 34 q 250 -8 183 -8 q 106 -8 67 40 q 28 88 28 183 l 28 275 q 28 356 61 401 q 94 446 154 446 q 176 446 198 436 q 220 425 243 404 l 243 437 l 315 437 l 315 290 l 233 290 q 230 327 216 345 q 203 363 178 363 q 152 363 140 340 q 128 318 128 267 l 128 178 q 128 123 140 99 q 153 75 181 75 q 208 75 221 95 q 235 116 235 157 l 235 162 z"},"!":{"x_min":0,"x_max":284,"ha":284,"o":"m 182 201 l 102 201 q 100 331 95 451 q 90 572 82 681 l 202 681 q 194 573 189 452 q 184 332 182 201 z m 82 46 q 82 70 100 88 q 118 106 142 106 q 167 106 185 89 q 202 71 202 46 q 202 21 184 3 q 167 -14 142 -14 q 118 -14 100 4 q 82 22 82 46 z"},"/":{"x_min":0,"x_max":291,"ha":291,"o":"m -24 -93 l 258 694 l 316 694 l 34 -93 z"},"[":{"x_min":0,"x_max":262,"ha":262,"o":"m 67 -81 l 67 681 l 262 681 l 262 616 l 164 616 l 164 -17 l 262 -17 l 262 -81 z"},"6":{"x_min":0,"x_max":389,"ha":389,"o":"m 253 238 q 253 279 238 301 q 223 322 194 322 q 163 322 148 298 q 134 274 134 222 l 134 161 q 134 117 149 93 q 165 70 194 70 q 224 70 238 91 q 253 112 253 155 z m 346 522 l 346 495 l 254 495 l 254 523 q 254 560 240 578 q 226 597 198 597 q 166 597 151 574 q 136 550 136 498 l 136 362 q 149 384 171 394 q 193 405 225 405 q 290 405 323 352 q 357 299 357 197 q 357 94 316 40 q 275 -14 198 -14 q 115 -14 75 39 q 35 92 35 202 l 35 468 q 35 576 74 629 q 112 681 192 681 q 265 681 306 639 q 346 598 346 522 z"},"r":{"x_min":0,"x_max":319,"ha":319,"o":"m 284 446 l 312 446 l 312 332 q 299 335 286 336 q 273 338 262 338 q 214 338 191 308 q 167 278 167 218 l 167 80 l 216 80 l 216 0 l 25 0 l 25 80 l 67 80 l 67 357 l 29 357 l 29 437 l 160 437 l 160 359 q 182 402 213 424 q 244 446 284 446 z"},"2":{"x_min":0,"x_max":389,"ha":389,"o":"m 31 454 l 31 495 q 31 587 72 634 q 113 681 193 681 q 264 681 304 637 q 345 594 345 518 q 345 475 328 426 q 310 377 272 314 l 134 84 l 264 84 l 264 178 l 349 178 l 349 0 l 28 0 l 28 85 l 167 313 q 206 377 223 423 q 240 469 240 508 q 240 549 227 568 q 213 588 185 588 q 153 588 138 564 q 124 541 124 488 l 124 454 z"},"{":{"x_min":0,"x_max":500,"ha":500,"o":"m 427 721 l 427 634 q 423 634 415 634 q 407 635 404 635 q 351 635 332 615 q 313 594 313 530 l 313 412 q 313 336 292 304 q 270 272 214 259 q 270 246 291 214 q 313 182 313 106 l 313 -11 q 313 -76 332 -96 q 352 -117 405 -117 q 408 -117 416 -117 q 423 -116 427 -116 l 427 -202 l 396 -202 q 346 -202 315 -196 q 284 -190 263 -178 q 235 -162 224 -131 q 213 -101 213 -32 l 213 89 q 213 159 187 188 q 162 217 100 217 q 97 217 90 216 q 83 216 79 216 l 79 303 q 83 303 90 302 q 97 302 100 302 q 162 302 187 331 q 213 359 213 429 l 213 550 q 213 621 224 651 q 235 681 263 697 q 285 710 316 716 q 348 721 405 721 z"},"9":{"x_min":0,"x_max":389,"ha":389,"o":"m 135 429 q 135 388 150 366 q 165 345 194 345 q 226 345 240 369 q 254 392 254 445 l 254 506 q 254 551 239 574 q 224 597 195 597 q 165 597 150 576 q 135 554 135 512 z m 42 172 l 134 172 l 134 144 q 134 107 148 89 q 162 70 190 70 q 223 70 238 93 q 252 115 252 169 l 252 305 q 236 282 216 272 q 195 261 168 261 q 99 261 65 314 q 31 367 31 473 q 31 573 73 627 q 114 681 191 681 q 271 681 312 629 q 353 577 353 474 l 353 199 q 353 89 314 38 q 275 -14 194 -14 q 122 -14 82 26 q 42 67 42 141 z"}," ":{"x_min":0,"x_max":194,"ha":194,"o":""},"I":{"x_min":0,"x_max":281,"ha":281,"o":"m 25 0 l 25 88 l 81 88 l 81 593 l 25 593 l 25 681 l 256 681 l 256 593 l 199 593 l 199 88 l 256 88 l 256 0 z"},"H":{"x_min":0,"x_max":552,"ha":552,"o":"m 25 681 l 252 681 l 252 593 l 199 593 l 199 410 l 352 410 l 352 593 l 299 593 l 299 681 l 526 681 l 526 593 l 470 593 l 470 88 l 526 88 l 526 0 l 299 0 l 299 88 l 352 88 l 352 312 l 199 312 l 199 88 l 252 88 l 252 0 l 25 0 l 25 88 l 81 88 l 81 593 l 25 593 z"},"4":{"x_min":0,"x_max":389,"ha":389,"o":"m 203 667 l 301 667 l 301 262 l 349 262 l 349 184 l 301 184 l 301 79 l 349 79 l 349 0 l 150 0 l 150 79 l 203 79 l 203 184 l 20 184 l 20 269 z m 92 262 l 205 262 l 207 511 z"},"~":{"x_min":0,"x_max":833,"ha":833,"o":"m 747 383 l 747 293 q 697 258 651 241 q 604 224 561 224 q 540 224 516 228 q 492 232 468 241 q 456 245 431 254 q 327 290 275 290 q 235 290 190 271 q 145 253 87 212 l 87 303 q 139 338 186 356 q 232 373 276 373 q 306 373 337 367 q 368 361 419 344 q 426 342 440 336 q 520 308 562 308 q 604 308 648 326 q 693 344 747 383 z"},"D":{"x_min":0,"x_max":506,"ha":506,"o":"m 199 594 l 199 87 l 221 87 q 293 87 324 125 q 356 162 356 248 l 356 452 q 356 532 328 563 q 300 594 228 594 z m 25 681 l 211 681 q 355 681 415 628 q 474 575 474 447 l 474 267 q 474 125 418 62 q 361 0 233 0 l 25 0 l 25 88 l 81 88 l 81 593 l 25 593 z"},"^":{"x_min":0,"x_max":1000,"ha":1000,"o":"m 447 713 l 553 713 l 795 439 l 694 439 l 500 633 l 305 439 l 204 439 z"},"0":{"x_min":0,"x_max":389,"ha":389,"o":"m 355 476 l 355 190 q 355 90 314 38 q 272 -14 194 -14 q 116 -14 75 38 q 34 90 34 190 l 34 476 q 34 576 75 629 q 116 681 194 681 q 272 681 314 628 q 355 576 355 476 z m 248 520 q 248 554 233 574 q 219 594 194 594 q 169 594 155 574 q 141 555 141 520 l 141 146 q 141 111 155 92 q 169 73 194 73 q 219 73 234 93 q 248 112 248 146 z"},"F":{"x_min":0,"x_max":481,"ha":481,"o":"m 25 0 l 25 88 l 81 88 l 81 593 l 25 593 l 25 681 l 469 681 l 469 486 l 372 486 l 372 594 l 199 594 l 199 409 l 339 409 l 339 311 l 199 311 l 199 88 l 256 88 l 256 0 z"},"`":{"x_min":0,"x_max":500,"ha":500,"o":"m 127 675 l 232 675 l 319 500 l 260 500 z"},"k":{"x_min":0,"x_max":424,"ha":424,"o":"m 20 0 l 20 80 l 58 80 l 58 600 l 20 600 l 20 681 l 158 681 l 158 235 l 284 364 l 222 364 l 222 437 l 417 437 l 417 357 l 382 357 l 264 236 l 392 80 l 424 80 l 424 0 l 235 0 l 235 80 l 276 80 l 158 231 l 158 80 l 196 80 l 196 0 z"},"u":{"x_min":0,"x_max":433,"ha":433,"o":"m 26 437 l 164 437 l 164 146 q 164 109 174 94 q 184 79 207 79 q 232 79 250 93 q 269 107 275 130 l 275 357 l 237 357 l 237 437 l 375 437 l 375 80 l 413 80 l 413 0 l 284 0 l 284 57 q 259 24 230 8 q 202 -8 167 -8 q 113 -8 89 22 q 64 53 64 120 l 64 357 l 26 357 z"},"]":{"x_min":0,"x_max":262,"ha":262,"o":"m 195 681 l 195 -81 l 0 -81 l 0 -17 l 98 -17 l 98 616 l 0 616 l 0 681 z"},"U":{"x_min":0,"x_max":552,"ha":552,"o":"m 81 172 l 81 593 l 25 593 l 25 681 l 252 681 l 252 593 l 199 593 l 199 178 q 199 128 218 106 q 236 83 276 83 q 315 83 334 106 q 352 128 352 178 l 352 593 l 299 593 l 299 681 l 526 681 l 526 593 l 470 593 l 470 172 q 470 81 421 33 q 371 -14 276 -14 q 181 -14 131 33 q 81 81 81 172 z"},"o":{"x_min":0,"x_max":359,"ha":359,"o":"m 127 165 q 127 119 140 97 q 152 75 179 75 q 206 75 219 97 q 232 120 232 165 l 232 273 q 232 318 219 341 q 206 363 179 363 q 152 363 140 341 q 127 319 127 273 z m 27 165 l 27 273 q 27 358 66 402 q 104 446 179 446 q 253 446 293 402 q 332 357 332 273 l 332 165 q 332 81 293 36 q 253 -8 179 -8 q 104 -8 66 36 q 27 80 27 165 z"},"N":{"x_min":0,"x_max":559,"ha":559,"o":"m 25 0 l 25 88 l 81 88 l 81 593 l 25 593 l 25 681 l 201 681 l 382 215 l 382 593 l 328 593 l 328 681 l 534 681 l 534 593 l 478 593 l 478 -4 l 377 -4 l 179 502 l 179 88 l 232 88 l 232 0 z"},"+":{"x_min":0,"x_max":833,"ha":833,"o":"m 375 596 l 458 596 l 458 339 l 709 339 l 709 258 l 458 258 l 458 0 l 375 0 l 375 258 l 124 258 l 124 339 l 375 339 z"},"G":{"x_min":0,"x_max":433,"ha":433,"o":"m 325 37 q 301 12 271 -1 q 242 -14 210 -14 q 123 -14 77 42 q 31 99 31 206 l 31 469 q 31 580 74 637 q 117 694 199 694 q 235 694 264 679 q 292 665 313 637 l 313 681 l 395 681 l 395 481 l 306 481 l 305 500 q 303 550 284 574 q 266 598 230 598 q 189 598 169 572 q 150 546 150 490 l 150 189 q 150 133 169 108 q 188 83 230 83 q 270 83 290 110 q 310 136 310 190 l 310 240 l 250 240 l 250 331 l 407 331 l 407 0 l 351 0 z"},"q":{"x_min":0,"x_max":398,"ha":398,"o":"m 240 282 q 240 318 225 338 q 209 357 181 357 q 158 357 146 339 q 134 321 134 287 l 134 152 q 134 111 146 93 q 158 75 184 75 q 211 75 226 97 q 240 120 240 161 z m 251 382 l 251 437 l 378 437 l 378 357 l 340 357 l 340 -105 l 378 -105 l 378 -185 l 202 -185 l 202 -105 l 240 -105 l 240 40 q 219 16 196 4 q 172 -8 146 -8 q 92 -8 63 31 q 34 69 34 141 l 34 295 q 34 367 64 406 q 95 445 150 445 q 182 445 206 430 q 230 415 251 382 z"},"d":{"x_min":0,"x_max":398,"ha":398,"o":"m 134 157 q 134 115 146 97 q 157 79 184 79 q 211 79 226 101 q 240 124 240 166 l 240 284 q 240 322 226 342 q 212 361 184 361 q 159 361 146 344 q 134 326 134 291 z m 250 52 q 229 21 204 7 q 178 -8 146 -8 q 93 -8 63 31 q 34 70 34 142 l 34 297 q 34 369 63 407 q 93 446 146 446 q 173 446 198 433 q 222 420 240 396 l 240 600 l 202 600 l 202 681 l 340 681 l 340 80 l 378 80 l 378 0 l 250 0 z"},"1":{"x_min":0,"x_max":389,"ha":389,"o":"m 94 0 l 94 80 l 145 80 l 145 588 l 94 588 l 94 667 l 250 667 l 250 80 l 302 80 l 302 0 z"},"5":{"x_min":0,"x_max":389,"ha":389,"o":"m 62 310 l 62 667 l 315 667 l 315 576 l 153 576 l 153 407 q 166 416 181 420 q 197 425 217 425 q 285 425 319 370 q 352 314 352 202 q 352 88 314 37 q 275 -14 191 -14 q 116 -14 75 27 q 33 68 33 142 l 33 184 l 127 184 l 127 157 q 127 116 142 94 q 158 73 187 73 q 220 73 234 94 q 248 115 248 166 l 248 243 q 248 298 235 320 q 222 343 191 343 q 175 343 163 335 q 150 327 140 310 z"}}}
